<svg width="102" height="23" viewBox="0 0 102 23" fill="none" xmlns="http://www.w3.org/2000/svg">
<path fill-rule="evenodd" clip-rule="evenodd" d="M101.82 11.0883C101.821 11.159 101.821 11.23 101.821 11.3012C101.821 13.5838 101.352 15.5998 100.413 17.3492C99.4743 19.0772 98.1623 20.4318 96.477 21.4132C94.7917 22.3945 92.8397 22.8852 90.621 22.8852C88.381 22.8852 86.4183 22.3945 84.733 21.4132C83.069 20.4318 81.757 19.0772 80.797 17.3492C79.8583 15.5998 79.389 13.5838 79.389 11.3012C79.389 9.0185 79.8583 7.01316 80.797 5.28516C81.757 3.53583 83.069 2.1705 84.733 1.18917C85.6796 0.637988 86.7137 0.2416 87.8352 -1.78667e-06C87.8278 0.16612 87.824 0.333201 87.824 0.501162C87.824 1.62231 87.9917 2.70429 88.3035 3.72337C87.2121 4.05925 86.278 4.65451 85.501 5.50916C84.221 6.91716 83.581 8.84783 83.581 11.3012C83.581 13.7545 84.221 15.6852 85.501 17.0932C86.781 18.5012 88.4877 19.2052 90.621 19.2052C92.7543 19.2052 94.4503 18.5012 95.709 17.0932C96.9653 15.7112 97.6051 13.8258 97.6283 11.4369C98.0211 11.4794 98.42 11.5012 98.824 11.5012C99.8624 11.5012 100.867 11.3573 101.82 11.0883ZM0 22.5012V0.101164H4.096L14.624 15.8772V0.101164H18.72V22.5012H14.624L4.096 6.75717V22.5012H0ZM21.6225 22.5012L29.8145 0.101164H34.4225L42.6145 22.5012H38.2625L36.4705 17.3172H27.7345L25.9105 22.5012H21.6225ZM28.8545 14.1172H35.3505L32.0865 4.80516L28.8545 14.1172ZM48.341 3.39717V22.5012H52.437V3.39717H58.997V0.101164H41.813V3.39717H48.341ZM67.2472 22.5012V3.39717H60.7192V0.101164H77.9033V3.39717H71.3432V22.5012H67.2472Z" fill="white"/>
</svg>
